<svg width="553" height="553" viewBox="0 0 553 553" fill="none" xmlns="http://www.w3.org/2000/svg">
<rect width="553.003" height="553.003" rx="115" fill="url(#paint0_linear_4665_656)"/>
<path d="M232.268 77.996C291.943 59.606 355.569 78.2318 396.492 124.928C396.802 125.285 397.196 125.562 397.642 125.731C400.026 126.658 402.73 126.672 405.409 127.194C439.4 133.864 465.609 160.126 474.151 193.018C482.183 223.931 473.036 257.302 449.19 279.02C446.405 281.557 444.389 283.429 443.144 284.636C443.12 284.659 443.088 284.674 443.054 284.678C443.021 284.682 442.988 284.675 442.96 284.658C442.93 284.642 442.906 284.617 442.893 284.586C442.879 284.555 442.876 284.521 442.884 284.488C443.726 280.754 444.32 277.351 444.67 274.279C448.45 240.959 424.317 212.798 390.186 213.586C376.444 213.9 364.673 218.729 354.874 228.074C349.135 233.546 341.419 241.223 331.724 251.102C334.863 253.654 337.928 256.173 340.92 258.656C347.983 264.526 353.628 271.537 357.851 279.689C363.919 291.418 366.61 303.917 365.926 317.183C364.892 337.114 356.926 353.566 342.028 366.537L226.821 481.404C226.641 481.583 226.426 481.727 226.191 481.824C225.956 481.921 225.703 481.969 225.449 481.969H159.556C159.504 481.97 159.454 481.956 159.411 481.928C159.368 481.899 159.333 481.86 159.313 481.813C159.293 481.766 159.289 481.713 159.299 481.663C159.309 481.612 159.335 481.565 159.372 481.529L308.975 332.452C316.476 325.536 319.009 317.129 316.573 307.23C315.104 301.245 311.345 297.218 305.808 292.853C302.954 290.605 300.211 288.237 297.583 285.754C297.488 285.666 297.363 285.616 297.234 285.617C297.105 285.618 296.982 285.671 296.891 285.762L271.182 311.19L99.9464 481.456C99.5968 481.804 99.1234 482 98.6322 482H77.7701C77.5951 482 77.4257 481.93 77.3013 481.808C77.1777 481.685 77.108 481.519 77.106 481.345C77.0076 465.704 76.989 450.805 77.053 436.651C77.0604 434.781 77.2977 433.977 78.7299 432.557C116.028 395.512 168.768 343.002 236.95 275.028C238.461 273.527 239.981 272.034 241.512 270.552L254.734 257.58C254.796 257.52 254.845 257.448 254.877 257.368C254.908 257.289 254.92 257.203 254.916 257.117C254.911 257.031 254.89 256.947 254.851 256.869C254.812 256.792 254.757 256.724 254.69 256.669C251.773 254.269 248.17 251.33 244.575 249.99C234.884 246.393 225.543 247.403 216.551 253.017C215.035 253.96 212.905 255.828 210.164 258.625C203.461 265.452 196.721 272.218 189.944 278.922L77.452 391.146C77.4195 391.177 77.3788 391.199 77.3348 391.207C77.2913 391.216 77.247 391.21 77.2065 391.193C77.166 391.177 77.1303 391.151 77.106 391.115C77.0818 391.079 77.0694 391.036 77.0698 390.993C77.0353 380.932 77.0167 360.198 77.0167 328.792C77.0168 327.408 77.1122 326.195 77.3041 325.155C77.3525 324.915 77.4678 324.695 77.6362 324.522L144.57 257.912C153.793 248.715 163.017 239.567 172.24 230.468C181.001 221.82 186.029 216.961 187.324 215.891C192.782 211.4 198.79 207.829 205.345 205.179C226.804 196.498 247.792 196.972 268.311 206.601C276.513 210.451 283.735 216.037 289.701 222.678C289.727 222.708 289.76 222.733 289.796 222.75C289.831 222.767 289.871 222.777 289.91 222.778C289.949 222.779 289.988 222.773 290.024 222.759C290.06 222.744 290.093 222.722 290.119 222.694L294.617 218.16L358.677 154.838C358.707 154.807 358.732 154.77 358.746 154.73C358.761 154.689 358.767 154.645 358.763 154.601C358.76 154.559 358.748 154.516 358.727 154.479C358.706 154.441 358.676 154.407 358.64 154.381C356.256 152.666 353.576 149.435 350.903 147.204C328.098 128.129 299.835 118.598 269.971 120.769C248.242 122.345 228.278 129.923 210.077 143.502C205.062 147.444 199.184 152.751 192.446 159.426C153.761 197.776 115.417 235.82 77.4157 273.557C77.3895 273.582 77.3565 273.6 77.3209 273.607C77.2852 273.614 77.2479 273.609 77.2148 273.596C77.182 273.582 77.1533 273.56 77.1339 273.532C77.1146 273.502 77.1049 273.466 77.106 273.431C77.0076 249.402 76.9774 227.918 77.0167 208.978C77.0217 207.967 77.3527 207.094 78.0073 206.358C79.4346 204.758 80.8065 203.301 82.1256 201.991C84.0881 200.043 111.892 172.374 165.535 118.98C168.685 115.844 172.868 112.028 178.08 107.533C194.454 93.9283 212.517 84.0818 232.268 77.996Z" fill="url(#paint1_linear_4665_656)"/>
<defs>
<linearGradient id="paint0_linear_4665_656" x1="276.502" y1="0" x2="276.502" y2="553.003" gradientUnits="userSpaceOnUse">
<stop offset="0.0001" stop-color="#00162C"/>
</linearGradient>
<linearGradient id="paint1_linear_4665_656" x1="277" y1="71" x2="277" y2="482" gradientUnits="userSpaceOnUse">
<stop offset="0.346175" stop-color="#FEC84B"/>
<stop offset="1" stop-color="#FEAA01" stop-opacity="0.12"/>
</linearGradient>
</defs>
</svg>
