<svg width="650" height="144" viewBox="0 0 650 144" fill="none" xmlns="http://www.w3.org/2000/svg">
<path d="M236.567 63.7386H189.492V11.0586H171.691V133.525H189.492V80.4979H236.567V133.525H254.367V11.0586H236.567V63.7386Z" fill="black"/>
<path d="M331.038 91.2996C331.427 98.8058 329.128 106.205 324.553 112.169C322.417 114.719 319.714 116.735 316.661 118.056C313.608 119.376 310.288 119.965 306.966 119.775C300.055 119.775 294.904 117.907 291.648 114.251C288.392 110.594 286.658 104.403 286.658 96.0766V45.7188H269.872V97.7582C269.778 103.304 270.58 108.827 272.247 114.117C273.661 118.553 275.988 122.644 279.078 126.126C282.013 129.375 285.669 131.889 289.753 133.465C294.012 135.095 298.537 135.919 303.097 135.893C309.438 136.134 315.692 134.349 320.95 130.796C325.018 127.833 328.411 124.04 330.905 119.668V133.518H347.691V45.7188H330.905L331.038 91.2996Z" fill="black"/>
<path d="M438.96 55.092C435.289 51.3394 430.895 48.3705 426.043 46.3653C421.142 44.3506 415.891 43.3254 410.591 43.3494C404.407 43.2934 398.301 44.7309 392.791 47.5394C388.078 49.9175 384.054 53.4637 381.103 57.8402V11.0586H364.316V133.525H381.103V121.756C382.391 123.65 383.915 125.372 385.639 126.88C387.905 128.832 390.396 130.508 393.058 131.87C395.744 133.246 398.596 134.268 401.545 134.912C404.401 135.549 407.318 135.88 410.244 135.899C415.64 135.926 420.992 134.93 426.017 132.964C430.945 131.038 435.41 128.091 439.12 124.318C442.98 120.297 445.977 115.529 447.926 110.307C450.132 104.219 451.209 97.7798 451.102 91.3057V87.9164C451.196 81.4948 450.082 75.1133 447.82 69.1026C445.849 63.8791 442.834 59.1119 438.96 55.092ZM407.522 59.4417C411.107 59.4124 414.658 60.121 417.957 61.5233C421.136 62.8533 424.007 64.8245 426.39 67.3142C428.822 69.886 430.718 72.9162 431.968 76.2278C433.347 79.9681 434.026 83.9302 433.969 87.9164V91.3057C434.029 95.3791 433.351 99.4297 431.968 103.261C430.749 106.58 428.849 109.608 426.39 112.148C424.028 114.581 421.195 116.506 418.064 117.806C414.673 119.17 411.044 119.842 407.389 119.781C403.842 119.809 400.327 119.11 397.061 117.726C393.91 116.365 391.076 114.366 388.735 111.855C386.279 109.171 384.35 106.047 383.051 102.648C381.619 98.8082 380.913 94.736 380.969 90.6385V88.6103C380.92 84.5655 381.626 80.5472 383.051 76.7614C384.337 73.3562 386.267 70.2305 388.735 67.5546C391.098 65.0305 393.937 62.9989 397.088 61.5767C400.372 60.1232 403.931 59.3949 407.522 59.4417Z" fill="black"/>
<path d="M537.408 52.2387C534.607 49.2946 531.212 46.9799 527.449 45.4478C523.685 43.9156 519.639 43.2009 515.578 43.3518C510.534 43.2636 505.553 44.4771 501.114 46.8746C497.549 48.9082 494.592 51.8561 492.547 55.4143V45.7273H458.415V61.499H475.761V117.755H456.387V133.527H513.95V117.755H492.601V83.8363C492.578 80.5471 492.955 77.267 493.722 74.0684C494.384 71.3027 495.561 68.6865 497.191 66.3562C498.693 64.2415 500.666 62.5051 502.955 61.2853C505.508 59.9949 508.343 59.3621 511.202 59.4441C515.849 59.3058 520.365 61.0027 523.771 64.1677C527.107 67.2634 528.815 72.4943 528.815 79.7798V81.808L546.321 79.1393V77.5646C545.868 66.6496 542.906 58.1632 537.408 52.2387Z" fill="black"/>
<path d="M643.995 117.75C642.26 117.75 641.166 117.189 641.166 114.414V45.7216H624.38V57.5971C621.801 53.2962 618.114 49.7662 613.705 47.3758C608.606 44.6648 602.908 43.2791 597.133 43.3461C591.731 43.327 586.375 44.3513 581.361 46.362C576.429 48.3405 571.972 51.3416 568.284 55.1682C564.416 59.2234 561.419 64.028 559.478 69.2857C557.27 75.3636 556.193 81.7947 556.302 88.2603V90.929C556.183 97.4476 557.259 103.933 559.478 110.063C561.419 115.321 564.416 120.126 568.284 124.181C571.966 128.007 576.438 130.985 581.388 132.908C586.494 134.881 591.926 135.877 597.4 135.843C603.021 135.811 608.538 134.321 613.412 131.52C617.901 128.878 621.59 125.069 624.087 120.498C624.419 124.134 626.13 127.503 628.87 129.916C631.61 132.328 635.17 133.599 638.818 133.468H649.493V117.696L643.995 117.75ZM598.974 119.778C595.559 119.917 592.154 119.32 588.99 118.026C585.827 116.732 582.979 114.772 580.64 112.279C575.943 107.261 573.569 100.083 573.569 90.929V88.2603C573.525 84.2123 574.175 80.1868 575.49 76.3581C576.649 73.0092 578.463 69.9243 580.827 67.2841C583.068 64.8227 585.794 62.8513 588.833 61.4933C592.031 60.0996 595.487 59.3992 598.974 59.4384C602.443 59.4152 605.875 60.1437 609.035 61.5734C612.085 62.9844 614.811 65.0105 617.041 67.5246C619.394 70.2134 621.206 73.3302 622.379 76.7047C623.698 80.5323 624.348 84.5586 624.3 88.607V90.6352C624.352 94.7362 623.702 98.8158 622.379 102.698C621.197 106.068 619.386 109.184 617.041 111.878C614.848 114.405 612.111 116.404 609.035 117.723C605.858 119.089 602.433 119.789 598.974 119.778Z" fill="black"/>
<path d="M54.3438 2.45114C75.23 -3.99204 97.4993 2.53377 111.822 18.8945C111.931 19.0196 112.069 19.1166 112.225 19.1758C113.059 19.5007 114.005 19.5053 114.943 19.6884C126.84 22.0253 136.013 31.2265 139.003 42.7509C141.814 53.5815 138.613 65.2738 130.267 72.8828C129.292 73.7717 128.586 74.4275 128.15 74.8506C128.142 74.8587 128.131 74.8638 128.119 74.8652C128.108 74.8666 128.096 74.8641 128.086 74.8584C128.076 74.8526 128.067 74.8437 128.062 74.833C128.058 74.8223 128.057 74.8102 128.06 74.7988C128.354 73.4904 128.562 72.298 128.685 71.2216C130.008 59.5476 121.561 49.681 109.615 49.957C104.806 50.0671 100.686 51.7591 97.2559 55.0332C95.2473 56.9504 92.5468 59.6402 89.1533 63.1015C90.2522 63.9956 91.3249 64.8781 92.3721 65.748C94.8441 67.8046 96.8198 70.261 98.2979 73.1172C100.422 77.2269 101.363 81.606 101.124 86.2539C100.762 93.2369 97.9742 99.0011 92.7598 103.546L52.4375 143.791C52.3744 143.854 52.2993 143.904 52.2168 143.938C52.1345 143.972 52.0461 143.989 51.957 143.989H28.8945C28.8765 143.989 28.8588 143.984 28.8437 143.975C28.8288 143.965 28.8165 143.951 28.8096 143.935C28.8027 143.918 28.8012 143.899 28.8047 143.882C28.8083 143.864 28.8172 143.848 28.8301 143.835L81.1914 91.6035C83.8167 89.1806 84.7033 86.2349 83.8506 82.7666C83.3364 80.6696 82.0209 79.259 80.083 77.7295C79.0839 76.9419 78.124 76.1123 77.2041 75.2422C77.1709 75.2113 77.1271 75.1939 77.082 75.1943C77.0368 75.1948 76.9936 75.2133 76.9619 75.2451L67.9639 84.1543L8.03125 143.81C7.90889 143.931 7.74319 144 7.57129 144H0.26953C0.208297 144 0.149007 143.976 0.105468 143.933C0.0621821 143.89 0.0378101 143.831 0.0371083 143.77C0.00265555 138.29 -0.00384043 133.07 0.0185536 128.111C0.0211376 127.456 0.104178 127.175 0.605468 126.677C13.6597 113.698 32.1188 95.3001 55.9824 71.4843C56.5113 70.9582 57.0434 70.4353 57.5791 69.916L62.207 65.3711C62.2285 65.3501 62.2459 65.3248 62.2568 65.2968C62.2677 65.269 62.272 65.239 62.2705 65.209C62.269 65.1788 62.2617 65.1491 62.248 65.122C62.2344 65.0949 62.2149 65.0711 62.1914 65.0517C61.1708 64.2109 59.9097 63.1813 58.6514 62.7119C55.2596 61.4516 51.9899 61.8053 48.8428 63.7724C48.3122 64.1026 47.5668 64.7573 46.6074 65.7373C44.2612 68.1291 41.9023 70.4997 39.5303 72.8486L0.158202 112.168C0.146831 112.179 0.132573 112.186 0.117186 112.189C0.101942 112.192 0.086458 112.19 0.0722646 112.185C0.0580947 112.179 0.0455961 112.17 0.0371083 112.157C0.0286146 112.145 0.0242967 112.129 0.024413 112.114C0.0123545 108.589 0.00585833 101.325 0.00585833 90.3213C0.00586348 89.8364 0.0392662 89.4114 0.106444 89.0468C0.12336 88.9628 0.163732 88.8857 0.222655 88.8252L23.6494 65.4873C26.8775 62.2649 30.1059 59.06 33.334 55.872C36.4003 52.8422 38.1602 51.1395 38.6133 50.7646C40.5236 49.1913 42.6264 47.9402 44.9209 47.0117C52.4315 43.97 59.7774 44.136 66.959 47.5097C69.8298 48.8587 72.3575 50.816 74.4453 53.1425C74.4545 53.1531 74.4659 53.1619 74.4785 53.1679C74.4911 53.1739 74.5048 53.1772 74.5186 53.1777C74.5323 53.1781 74.546 53.176 74.5586 53.1709C74.5711 53.1658 74.5825 53.1581 74.5918 53.1484L76.166 51.5595L98.5869 29.374C98.5976 29.3632 98.6061 29.3502 98.6113 29.3359C98.6165 29.3217 98.6184 29.3061 98.6172 29.291C98.6159 29.276 98.6119 29.2612 98.6045 29.248C98.597 29.2347 98.5866 29.2228 98.5742 29.2138C97.7396 28.6128 96.8016 27.4807 95.8662 26.6992C87.8843 20.0161 77.9922 16.6766 67.54 17.4375C59.9348 17.9895 52.9473 20.6445 46.5771 25.4023C44.8218 26.7831 42.7646 28.6428 40.4062 30.9814C26.8663 44.418 13.446 57.7471 0.145507 70.9687C0.136334 70.9775 0.124785 70.9838 0.112304 70.9863C0.0998243 70.9887 0.086776 70.987 0.0751943 70.9824C0.0637114 70.9778 0.0536385 70.97 0.046874 70.9599C0.0401023 70.9497 0.0367315 70.9371 0.0371083 70.9248C0.00265555 62.5059 -0.00792258 54.9785 0.00585833 48.3427C0.00758096 47.9885 0.123431 47.6827 0.352538 47.4248C0.852105 46.8642 1.33228 46.3536 1.79394 45.8945C2.48083 45.2123 12.2121 35.5177 30.9873 16.8105C32.0898 15.7118 33.5537 14.3748 35.3779 12.7998C41.1091 8.03326 47.4309 4.5834 54.3438 2.45114Z" fill="black"/>
</svg>
